<svg xmlns="http://www.w3.org/2000/svg" viewBox="0 0 500 500">
  <g transform="translate(0,500) scale(0.1,-0.1)">
    <path d="M1300 3473 c1 -5 31 -60 69 -123 l67 -115 220 -3 221 -2 55 -98 c31 -53 122 -212 203 -352 81 -140 217 -376 303 -525 85 -148 160 -278 166 -287 8 -14 4 -30 -19 -73 -17 -31 -35 -60 -41 -66 -8 -6 -28 20 -67 88 -30 54 -85 150 -122 213 -37 63 -96 167 -132 230 -36 63 -74 127 -85 143 l-19 27 -135 0 c-74 0 -134 -4 -134 -9 0 -4 30 -60 66 -122 37 -63 154 -267 262 -454 108 -187 233 -404 278 -483 l82 -142 29 52 c16 29 39 69 50 88 128 219 273 479 273 490 0 7 -55 108 -122 224 -67 116 -203 353 -303 526 -99 173 -241 420 -315 548 l-134 232 -358 0 c-197 0 -358 -3 -358 -7z"/>
    <path d="M2190 3475 c0 -2 71 -127 158 -277 88 -150 166 -286 174 -302 l15 -28 171 300 c95 164 172 302 172 306 0 3 -155 6 -345 6 -190 0 -345 -2 -345 -5z"/>
    <path d="M2997 3438 c-49 -84 -291 -505 -343 -597 -30 -51 -54 -96 -54 -100 1 -14 367 -643 375 -643 8 0 454 759 455 775 0 4 -62 7 -139 7 l-138 0 -87 -150 c-48 -82 -89 -150 -91 -150 -2 0 -24 36 -49 80 l-47 80 187 328 c103 180 198 344 211 364 13 21 23 40 23 43 0 3 -63 5 -139 5 l-139 0 -25 -42z"/>
  </g>
</svg>
